HIERARCHY
ROOT SpineBase
{
  OFFSET 0.000000 0.000000 0.000000
  CHANNELS 6 Xposition Yposition Zposition Zrotation Xrotation Yrotation
  JOINT SpineMid
  {
    OFFSET 0.000000 33.018289 0.000000
    CHANNELS 3 Zrotation Xrotation Yrotation
    JOINT SpineShoulder
    {
      OFFSET -0.142066 24.577988 -0.851050
      CHANNELS 3 Zrotation Xrotation Yrotation
      JOINT Neck
      {
        OFFSET -0.128890 8.155050 -0.627227
        CHANNELS 3 Zrotation Xrotation Yrotation
        JOINT Head
        {
          OFFSET 0.704211 11.769071 0.642616
          CHANNELS 3 Zrotation Xrotation Yrotation
          End Site
          {
            OFFSET 0 0 0
          }
        }
      }
      JOINT ShoulderLeft
      {
        OFFSET -14.285453 -6.259319 -7.503659
        CHANNELS 3 Zrotation Xrotation Yrotation
        JOINT ElbowLeft
        {
          OFFSET -4.337951 -27.474715 1.431672
          CHANNELS 3 Zrotation Xrotation Yrotation
          JOINT WristLeft
          {
            OFFSET -1.361252 -21.209264 8.369342
            CHANNELS 3 Zrotation Xrotation Yrotation
            JOINT HandLeft
            {
              OFFSET 0.184490 -3.058700 1.301950
              CHANNELS 3 Zrotation Xrotation Yrotation
              JOINT HandTipLeft
              {
                OFFSET -1.221449 -6.347455 0.304944
                CHANNELS 3 Zrotation Xrotation Yrotation
                End Site
                {
                  OFFSET 0 0 0
                }
              }
              JOINT ThumbLeft
              {
                OFFSET 0.919228 1.051470 -6.537291
                CHANNELS 3 Zrotation Xrotation Yrotation
                End Site
                {
                  OFFSET 0 0 0
                }
              }
            }
          }
        }
      }
      JOINT ShoulderRight
      {
        OFFSET 15.507451 -5.686750 -1.705280
        CHANNELS 3 Zrotation Xrotation Yrotation
        JOINT ElbowRight
        {
          OFFSET 7.164702 -24.539490 7.635552
          CHANNELS 3 Zrotation Xrotation Yrotation
          JOINT WristRight
          {
            OFFSET -21.231713 -18.082002 -16.792046
            CHANNELS 3 Zrotation Xrotation Yrotation
            JOINT HandRight
            {
              OFFSET -4.619855 -7.444511 -2.449746
              CHANNELS 3 Zrotation Xrotation Yrotation
              JOINT HandTipRight
              {
                OFFSET -4.283688 -8.094419 1.068342
                CHANNELS 3 Zrotation Xrotation Yrotation
                End Site
                {
                  OFFSET 0 0 0
                }
              }
              JOINT ThumbRight
              {
                OFFSET -5.687287 5.337762 -2.063802
                CHANNELS 3 Zrotation Xrotation Yrotation
                End Site
                {
                  OFFSET 0 0 0
                }
              }
            }
          }
        }
      }
    }
  }
  JOINT HipLeft
  {
    OFFSET -7.200465 1.875512 -4.495404
    CHANNELS 3 Zrotation Xrotation Yrotation
    JOINT KneeLeft
    {
      OFFSET 1.215177 -36.147545 -2.939585
      CHANNELS 3 Zrotation Xrotation Yrotation
      JOINT AnkleLeft
      {
        OFFSET -1.542721 -33.950406 -3.356759
        CHANNELS 3 Zrotation Xrotation Yrotation
        JOINT FootLeft
        {
          OFFSET 9.909810 -2.279141 2.603155
          CHANNELS 3 Zrotation Xrotation Yrotation
          End Site
          {
            OFFSET 0 0 0
          }
        }
      }
    }
  }
  JOINT HipRight
  {
    OFFSET 5.269812 1.115863 -2.371011
    CHANNELS 3 Zrotation Xrotation Yrotation
    JOINT KneeRight
    {
      OFFSET 1.372427 -36.143064 -0.878968
      CHANNELS 3 Zrotation Xrotation Yrotation
      JOINT AnkleRight
      {
        OFFSET 1.344639 -32.118728 -1.300241
        CHANNELS 3 Zrotation Xrotation Yrotation
        JOINT FootRight
        {
          OFFSET 1.065820 -2.732952 -12.889320
          CHANNELS 3 Zrotation Xrotation Yrotation
          End Site
          {
            OFFSET 0 0 0
          }
        }
      }
    }
  }
}
MOTION
Frames: 12
Frame Time: 0.033333
74.916537 72.785725 265.440918 -0.000000 0.000000 -9.667895 -0.000000 0.000000 9.667895 -0.000000 0.000000 0.000000 -0.000000 0.000000 0.000000 0.000000 0.000000 0.000000 -0.000000 0.000000 0.000000 -0.000000 0.000000 0.000000 -0.000000 0.000000 0.000000 -0.000000 0.000000 0.000000 0.000000 0.000000 0.000000 0.000000 0.000000 0.000000 -0.000000 0.000000 0.000000 -0.000000 0.000000 0.000000 -0.000000 0.000000 0.000000 -0.000000 0.000000 0.000000 0.000000 0.000000 0.000000 0.000000 0.000000 0.000000 -0.000000 0.000000 9.667895 -0.000000 0.000000 0.000000 -0.000000 0.000000 0.000000 0.000000 0.000000 0.000000 -0.000000 0.000000 9.667895 -0.000000 0.000000 0.000000 -0.000000 0.000000 0.000000 0.000000 0.000000 0.000000
74.938344 72.776551 265.441136 -0.028050 -0.021541 -9.635641 0.024049 0.025933 9.635630 -0.000000 0.000000 0.000000 -0.000000 0.000000 0.000000 0.000000 0.000000 0.000000 -0.000000 0.000000 0.000000 -0.000000 0.000000 0.000000 -1.250409 4.180114 -0.238245 1.386610 -2.745511 0.068151 0.000000 0.000000 0.000000 0.000000 0.000000 0.000000 -0.000000 0.000000 0.000000 -4.270839 4.441031 -1.003458 11.315662 -15.064929 7.503002 -6.590737 17.734779 -7.660763 0.000000 0.000000 0.000000 0.000000 0.000000 0.000000 0.024049 0.025933 9.635630 -0.000000 0.000000 0.000000 -0.000000 0.000000 0.000000 0.000000 0.000000 0.000000 0.024049 0.025933 9.635630 -0.000000 0.000000 0.000000 -0.000000 0.000000 0.000000 0.000000 0.000000 0.000000
74.958200 72.769195 265.441005 -0.052396 -0.040539 -9.605685 0.044896 0.048714 9.605647 -0.000000 0.000000 0.000000 -0.000000 0.000000 0.000000 0.000000 0.000000 0.000000 -0.000000 0.000000 0.000000 0.041305 -0.970288 0.078665 -2.205923 8.565830 -0.372849 2.480080 -5.049414 0.177134 0.000000 0.000000 0.000000 0.000000 0.000000 0.000000 -0.000000 0.000000 0.000000 -7.818887 8.190567 -1.570124 23.986301 -27.355900 17.401633 -11.176688 36.391455 -14.940929 0.000000 0.000000 0.000000 0.000000 0.000000 0.000000 0.044896 0.048714 9.605647 -0.000000 0.000000 0.000000 -0.924643 0.245997 0.016079 0.000000 0.000000 0.000000 1.074126 -0.060012 9.570927 -2.229306 0.626002 0.111467 1.231801 -0.349932 -0.060736 0.000000 0.000000 0.000000
74.976106 72.763655 265.440525 -0.073028 -0.056988 -9.578020 0.062528 0.068345 9.577946 -0.000000 0.000000 0.000000 -0.000000 0.000000 0.000000 0.000000 0.000000 0.000000 -0.000000 0.000000 0.000000 0.013981 -1.252929 0.085719 -2.739177 11.361436 -0.348771 3.228632 -6.825191 0.267191 0.000000 0.000000 0.000000 0.000000 0.000000 0.000000 -0.000000 0.000000 0.000000 -10.629095 11.150744 -1.829014 36.868338 -35.647476 28.325438 -12.886686 53.744026 -22.799723 0.000000 0.000000 0.000000 0.000000 0.000000 0.000000 0.062528 0.068345 9.577946 -0.000000 0.000000 0.000000 -1.209497 0.319325 0.010851 0.000000 0.000000 0.000000 1.486235 -0.090808 9.529790 -3.085206 0.879747 0.161730 1.706113 -0.491557 -0.082295 0.000000 0.000000 0.000000
74.992061 72.759932 265.439695 -0.089942 -0.070883 -9.552642 0.076932 0.084826 9.552530 -0.000000 0.000000 0.000000 -0.000000 0.000000 0.000000 0.000000 0.000000 0.000000 -0.000000 0.000000 0.000000 -0.045665 -1.400202 0.070950 -2.864022 13.047600 -0.249572 3.599510 -8.033852 0.291948 0.000000 0.000000 0.000000 0.000000 0.000000 0.000000 -0.000000 0.000000 0.000000 -12.711270 13.301304 -1.894341 48.077821 -40.326829 38.238466 -9.710133 67.960673 -33.364458 0.000000 0.000000 0.000000 0.000000 0.000000 0.000000 0.076932 0.084826 9.552530 -0.000000 0.000000 0.000000 -1.375424 0.359469 -0.003950 0.000000 0.000000 0.000000 1.817716 -0.122133 9.493488 -3.766917 1.093990 0.205411 2.081931 -0.609585 -0.098681 0.000000 0.000000 0.000000
75.006067 72.758026 265.438517 -0.103132 -0.082220 -9.529548 0.088097 0.098160 9.529399 -0.000000 0.000000 0.000000 -0.000000 0.000000 0.000000 0.000000 0.000000 0.000000 -0.000000 0.000000 0.000000 -0.137663 -1.411933 0.034436 -2.572320 13.598628 -0.101063 3.578457 -8.666639 0.225111 0.000000 0.000000 0.000000 0.000000 0.000000 0.000000 -0.000000 0.000000 0.000000 -14.083778 14.660165 -1.852094 56.125406 -42.623344 45.557479 2.866431 77.600136 -51.094543 0.000000 0.000000 0.000000 0.000000 0.000000 0.000000 0.088097 0.098160 9.529399 -0.000000 0.000000 0.000000 -1.422167 0.366355 -0.028601 0.000000 0.000000 0.000000 2.069761 -0.154001 9.461980 -4.273804 1.268893 0.240783 2.357602 -0.703373 -0.110360 0.000000 0.000000 0.000000
75.022662 72.759582 265.439194 -0.109060 -0.096212 -9.516050 0.091654 0.112918 9.515868 -0.000000 0.000000 0.000000 -0.000000 0.000000 0.000000 0.000000 0.000000 0.000000 -0.000000 0.000000 0.000000 -0.724723 -0.665350 -0.246823 1.805602 8.234705 1.109157 -0.460373 -5.442974 -1.320448 0.000000 0.000000 0.000000 0.000000 0.000000 0.000000 -0.000000 0.000000 0.000000 -14.178525 14.555663 -1.683344 57.293712 -42.900675 46.463969 5.678149 79.607162 -55.229179 0.000000 0.000000 0.000000 0.000000 0.000000 0.000000 0.091654 0.112918 9.515868 -0.000000 0.000000 0.000000 -0.000000 0.000000 0.000000 0.000000 0.000000 0.000000 2.430579 -0.205569 9.436369 -5.014587 1.535393 0.295962 2.755133 -0.850461 -0.126619 0.000000 0.000000 0.000000
75.028294 72.763309 265.435794 -0.116474 -0.100443 -9.504013 0.098291 0.118296 9.503810 -0.000000 0.000000 0.000000 0.865241 -0.253489 -0.030180 0.000000 0.000000 0.000000 -0.000000 0.000000 0.000000 -0.594935 -1.062451 -0.171408 0.638845 11.644684 0.855111 0.794757 -9.524067 -0.702702 0.000000 0.000000 0.000000 0.000000 0.000000 0.000000 0.911361 0.114458 0.315452 -13.642036 12.838164 -1.787811 50.401916 -41.657971 40.708817 -6.743046 72.283826 -38.391401 0.000000 0.000000 0.000000 0.000000 0.000000 0.000000 0.098291 0.118296 9.503810 -0.000000 0.000000 0.000000 -0.000000 0.000000 0.000000 0.000000 0.000000 0.000000 2.168572 -0.224883 9.431655 -4.390028 1.461824 0.261065 2.400325 -0.793886 -0.113721 0.000000 0.000000 0.000000
75.032898 72.765715 265.431016 -0.114330 -0.097181 -9.494239 0.096734 0.114708 9.494046 -0.000000 0.000000 0.000000 0.910296 -0.442156 -0.019749 0.000000 0.000000 0.000000 -0.000000 0.000000 0.000000 -0.322063 -1.001790 -0.065369 -1.591442 10.821577 0.042270 2.950735 -8.312086 0.302186 0.000000 0.000000 0.000000 0.000000 0.000000 0.000000 1.059884 0.204846 0.386879 -13.685260 12.564923 -1.781045 50.355059 -42.171062 41.319019 -5.423709 73.087667 -39.804158 0.000000 0.000000 0.000000 0.000000 0.000000 0.000000 0.096734 0.114708 9.494046 -0.000000 0.000000 0.000000 -0.000000 0.000000 0.000000 0.000000 0.000000 0.000000 2.234824 -0.275604 9.419351 -4.490641 1.556579 0.273318 2.441228 -0.832100 -0.115879 0.000000 0.000000 0.000000
75.038482 72.763034 265.422589 -0.121630 -0.094108 -9.464432 0.104500 0.112827 9.464229 -0.000000 0.000000 0.000000 0.963156 -0.622799 -0.010099 0.000000 0.000000 0.000000 -0.000000 0.000000 0.000000 -0.434563 -0.974338 -0.112238 -0.897845 11.736116 0.357240 2.776845 -10.211015 0.252485 0.000000 0.000000 0.000000 0.000000 0.000000 0.000000 0.791826 0.571513 0.409106 -13.363609 12.103322 -1.825456 50.516544 -42.831747 42.286723 -1.683957 73.372625 -43.089141 0.000000 0.000000 0.000000 0.000000 0.000000 0.000000 0.104500 0.112827 9.464229 -0.000000 0.000000 0.000000 -0.801514 0.145547 -0.290879 0.000000 0.000000 0.000000 2.297514 -0.297009 9.387776 -4.610459 1.596199 0.282565 2.509419 -0.845267 -0.118404 0.000000 0.000000 0.000000
75.038899 72.758119 265.413935 -0.132945 -0.090477 -9.430225 0.116324 0.111037 9.430007 -0.000000 0.000000 0.000000 0.947370 -0.807555 0.003271 0.000000 0.000000 0.000000 -0.000000 0.000000 0.000000 -0.758777 -0.416021 -0.274966 1.808199 7.558310 1.110444 0.128131 -7.735795 -0.637982 0.000000 0.000000 0.000000 0.000000 0.000000 0.000000 0.746595 0.692913 0.430093 -13.336339 11.972595 -1.836378 50.721039 -43.156147 42.807575 0.416971 73.637266 -45.075198 0.000000 0.000000 0.000000 0.000000 0.000000 0.000000 0.116324 0.111037 9.430007 -0.000000 0.000000 0.000000 -1.065216 0.168740 -0.502585 0.000000 0.000000 0.000000 2.357669 -0.295261 9.352328 -4.746134 1.602374 0.289918 2.596231 -0.849036 -0.121346 0.000000 0.000000 0.000000
75.043802 72.750743 265.405875 -0.140262 -0.084127 -9.412110 0.124617 0.105932 9.411892 -0.000000 0.000000 0.000000 0.807825 -0.921906 0.017569 0.000000 0.000000 0.000000 -0.000000 0.000000 0.000000 -0.722904 -0.438645 -0.259384 1.103022 7.147823 0.822611 0.533409 -6.835476 -0.429852 0.000000 0.000000 0.000000 0.000000 0.000000 0.000000 0.811724 0.628693 0.431523 -13.450006 12.084765 -1.824981 51.057052 -43.075588 42.867632 2.187248 73.861103 -47.013570 0.000000 0.000000 0.000000 0.000000 0.000000 0.000000 0.124617 0.105932 9.411892 -0.000000 0.000000 0.000000 -0.230501 -0.397856 -2.003350 0.000000 0.000000 0.000000 2.386895 -0.258691 9.334410 -4.892712 1.536937 0.292291 2.715281 -0.822613 -0.124797 0.000000 0.000000 0.000000
